# xmcd
#
# Track frame offsets: 
#        150
#        24678
#        64381
#        98997
#
# Disc length: 1611 seconds
#
# Revision: 0
# Processed by: cddbd v1.4PL0 Copyright (c) Steve Scherf et al.
# Submitted via: ExactAudioCopy v0.90b4
#
DISCID=33064904
DTITLE=Van Morrison - Will I Ever Be Like Frank Sinatra, disc 2
DYEAR=1999
DGENRE=Celtic
TTITLE0=When The Leaves Come Falling Down
TTITLE1=I'm Not Feeling It Anymore
TTITLE2=And The Healing Has Begun
TTITLE3=Gloria
EXTD=
EXTT0=
EXTT1=
EXTT2=
EXTT3=
PLAYORDER=
